<svg xmlns="http://www.w3.org/2000/svg" viewBox="0 0 452.34 106.02"><defs><style>.cls-1{fill:#fd0;}.cls-2{fill:#003595;}.cls-3{fill:#737ebf;}.cls-4{fill:#ffe964;}.cls-5{fill:#b9bcdf;}.cls-6{fill:#fff09a;}.cls-7{fill:#fff;}</style></defs><g id="Layer_6" data-name="Layer 6"><path class="cls-1" d="M736.08,331H635.8a2.09,2.09,0,0,0-2.09,2.09V434.92A2.09,2.09,0,0,0,635.8,437h4.69a2.09,2.09,0,0,0,2.07-1.79l1.12-3.62a2.09,2.09,0,0,1,2-1.47H726.2a2.09,2.09,0,0,1,2,1.47l1.12,3.62a2.09,2.09,0,0,0,2.07,1.79h4.69a2.09,2.09,0,0,0,2.09-2.09V333.08a2.09,2.09,0,0,0-2.09-2.09" transform="translate(-285.83 -330.99)"/><path class="cls-2" d="M720,413.65c-.72.29-1.58-.37-.62-.76a6.25,6.25,0,0,0,3.86-5.43c0-.59,1.55-.84,1.5-.15a7.47,7.47,0,0,1-4.74,6.34m-3.95-12.85c-.22-1,1.51-1.44,1.78-.41s-1.57,1.46-1.78.41m-3.57.07a1.14,1.14,0,0,1,2.21-.49c.21,1.32-1.93,1.83-2.21.49m-.73,2.51c-.15-.76,1.15-1.07,1.36-.31s-1.2,1.08-1.36.31m-2.29-.73c-.23-1.13,1.63-1.55,1.93-.43s-1.69,1.58-1.93.43m-.56,2.9c-.22-1,1.5-1.43,1.78-.4s-1.57,1.45-1.78.4m-2-1.35c-.17-.85,1.27-1.19,1.5-.34s-1.32,1.21-1.5.34m-.44,2c-.12-.58.92-.83,1.07-.26s-1,.84-1.07.26m20.46-3.63c-.57-.24-1.53-.44-1.75-.76v0a10,10,0,0,0-5.5-3.54A13.84,13.84,0,0,0,706.72,402a10.58,10.58,0,0,0-3.12,7.26c-.06.64-1.41,1.68-1.42,2.6a2.14,2.14,0,0,0,.85,1.93c.37.29,1.05.25,1.58.35a2.53,2.53,0,0,1,1,.67l0,0c3.08,3.64,8.66,4.2,13,2.69l.11-.05.14,0c4.12-1.59,7.81-5.23,8.06-9.86a9.42,9.42,0,0,0,0-1.19,2.62,2.62,0,0,0,1-1.57,2.39,2.39,0,0,0-1.05-2.17" transform="translate(-285.83 -330.99)"/><path class="cls-2" d="M682.21,354c2.67-1.43,4.73,2.33,5,4.59l-7,3.85c0-.29-.07-.57-.1-.83-.22-2.13-.09-6.41,2.16-7.61m5.35,9.37c0,2.21-.72,5.4-3.59,4.95-1.91-.3-2.9-2.09-3.42-4l8.72-4.78c.3-.16.85-.46.85-.88,0-3.3-2-6.39-5.5-6.77a6.36,6.36,0,0,0-6.68,3.95c-2.2,5.43-.55,15.56,7.15,14.25,3.57-.61,5.41-3.59,5.39-7.05,0-1.38-2.93-.85-2.92.29" transform="translate(-285.83 -330.99)"/><path class="cls-2" d="M677.52,370.77a1.06,1.06,0,0,1-2-.21,7.46,7.46,0,0,1-.17-1.63c-.1-2.4-.19-4.79-.28-7.19q-.36-8.94-.71-17.89c-.05-1.47-.11-2.94-.17-4.41,0-.82-1.05-1-1.69-.73l-3.39,1.2c-.49.18-1.4.58-1.22,1.26s1.21.65,1.68.48l1.75-.62q.58,14.81,1.16,29.61a2.52,2.52,0,0,0,1.63,2.32,5,5,0,0,0,6.15-2c.82-1.23-2.12-1.14-2.74-.2" transform="translate(-285.83 -330.99)"/><path class="cls-2" d="M707.18,364.55a2.15,2.15,0,0,0-1.9.85l-.67.9q-2.18-3.75-4.37-7.5l4.89-6.71c.43-.59-.36-1-.83-1a2.11,2.11,0,0,0-1.9.84L699,356.6c-.07-.12-.13-.24-.2-.35-.87-1.48-1.66-3-2.61-4.47a3.58,3.58,0,0,0-4.09-1.65c-1.42.4-2.66,1.71-2.11,3.25.42,1.18,3.31.36,2.9-.77a1,1,0,0,1-.06-.46,2.28,2.28,0,0,1,.4.42,4.31,4.31,0,0,1,.35.52c.28.44.53.91.79,1.35l2.75,4.73-5.64,7.76c-.43.58.36,1,.84,1.05a2.11,2.11,0,0,0,1.89-.85l4.2-5.75q2.29,3.94,4.6,7.89c.54.93,2.26.09,2.7-.5L708,365.6c.43-.58-.37-1-.84-1.05" transform="translate(-285.83 -330.99)"/><path class="cls-2" d="M709.21,345.08c-1.38-.36-3.18.31-3.34,1.87a2.09,2.09,0,0,0,2.23,2.49,1.49,1.49,0,0,1-.76,1.21c-.49.18-1.11.8-.72,1.34s1.43.32,1.94.13a4,4,0,0,0,2.51-3.59c.09-1.43-.29-3-1.86-3.45" transform="translate(-285.83 -330.99)"/><path class="cls-2" d="M713.29,363.75c-4,.26-5.91,4.92-2.24,7.23,3,1.85,8.15,1.2,10.38-1.58a4.69,4.69,0,0,0-.79-6.79c-1.49-1.06-3.47-1.43-5.18-2s-3.88-1.25-4.08-3.42,1.14-3.21,3.17-3.26a4,4,0,0,1,2.92.93c.59.59,1.27,2.84,0,3.09-.51.11-1.38.63-1.21,1.26s1.18.58,1.68.48a3.66,3.66,0,0,0,3.12-3.87,4,4,0,0,0-3-3.43c-3-1-7.94-.25-9.22,3.07a4.71,4.71,0,0,0,.22,4c1,1.74,3,2.31,4.73,2.9,2.65.89,7,1.85,5.65,5.65-.62,1.7-2.49,2.14-4.14,2a3.78,3.78,0,0,1-3-1.76c-.44-.81-.39-2.58.77-2.65,1.54-.1,2.31-2,.32-1.89" transform="translate(-285.83 -330.99)"/><path class="cls-2" d="M658,359.65,662,348.49q.78,6,1.55,12.1c-1.49-.21-3.48-.53-5.48-.94m10.75,7.16-1.33,1-2.88-22.36-.45-3.43c-.17-1.31-2.63-.24-2.9.54L655.43,359c-3.27-.87-5.86-2-5.15-3.45s-2.23-1.22-2.74-.21c-1.45,2.89,2.57,4.7,7.13,5.81l-2.95,8.4-.38,1.08a4.38,4.38,0,0,1-2.7,2.86c-1.21.55-.94,1.88.45,1.67l6.28-.9.16,0a2.15,2.15,0,0,0,1.07-.43.88.88,0,0,0,.39-.63.62.62,0,0,0-.38-.65,1.08,1.08,0,0,0-.48-.14,1.62,1.62,0,0,0-.44,0h0c-.53,0-1.27.06-1.54-.19-.45-.39-.07-1.23.08-1.7l3.09-8.78c2.58.48,5,.76,6.48.91.19,1.45.37,2.89.56,4.33.15,1.14.29,2.28.44,3.42.12,1,1.94.51,2.38.17l3.49-2.66c1.56-1.19-.84-1.89-1.87-1.11" transform="translate(-285.83 -330.99)"/><path class="cls-2" d="M664.52,416.53c-1.57,1.92-1.77-1.9-1.77-2.75v-9.14l1.48-.25c.47-.08,1.3-.31,1.36-.91s-.66-.74-1.09-.67l-1.75.3v-3.52c0-1.16-2.45-.72-2.45.24v3.69l-1.53.26c-.48.07-1.3.31-1.36.91s.66.74,1.09.67l1.8-.3v6.34c0,1.4,0,2.81,0,4.22.1,3.38,4.31,3.81,6.22,1.48,1-1.16-1.38-1.33-2-.57" transform="translate(-285.83 -330.99)"/><path class="cls-2" d="M650.58,409.72a4.05,4.05,0,0,0-4.26,6.15c1.77,3.16,5.87,3.72,9,2.48a5.91,5.91,0,0,0,3.13-8.05c-.92-1.95-3-3.06-4.84-4s-3.35-1.48-3.83-3.52c-.43-1.87.26-4.29,2.44-4.57a3.78,3.78,0,0,1,3.06.94c.63.66,1,2-.09,2.49-1.64.68-.17,1.83,1.09,1.3,3.14-1.31,2.56-4.93-.41-6-2.77-1-6.37-.27-8,2.31a5.57,5.57,0,0,0-.46,4.81,5.74,5.74,0,0,0,3.26,3.15c1.87.94,4.29,1.89,5.27,3.87.72,1.44.73,3.93-.4,5.17-1.33,1.45-3.9,1.26-5.38.19a4.42,4.42,0,0,1-1.79-2.73c-.19-1,0-2.5,1.3-2.3,1.14.16,2.67-1.43.94-1.69" transform="translate(-285.83 -330.99)"/><path class="cls-2" d="M667.92,413.27a2.7,2.7,0,0,1-.58-2.37c.17-1.11.83-1.47,1.75-1.9s2-.9,3-1.33h0V411c-.94,1.27-2.6,3.77-4.16,2.26m6.63-.37c0-2.57.12-5.16,0-7.71-.34-6.15-11-3-8.14,1.41.53.8,2.88-.06,2.25-1a1.49,1.49,0,0,1,.79-2.23,2.37,2.37,0,0,1,2.54,1.57,3.25,3.25,0,0,1,.15,1.05q-1.71.73-3.42,1.5c-1.59.71-3.34,1.45-3.76,3.32-.51,2.25.69,4.38,3.09,4.56a5.31,5.31,0,0,0,4-1.55v.88c0,1,1.49.69,2,.35l1.52-1c1.16-.76-.1-1.32-1.06-1.12" transform="translate(-285.83 -330.99)"/><path class="cls-2" d="M694.76,412.7c-1,1.79-2.92,2.13-4.07.27a8,8,0,0,1-.81-4.89c.11-1.16.39-3.17,1.66-3.68,1.75-.69,3,1.23,3.26,2.67,0,1.86,0,3.73,0,5.59l0,0m2.87,1.24-.39.16,0-8.58c0-2.62.42-5.27.65-7.88.06-.71-1-.78-1.42-.61l-2.31.81c-1.43.5-1.08,2,.39,1.46l.77-.27c-.14,1.39-.31,2.79-.42,4.19a5,5,0,0,0-3.17-.41c-2.81.51-4.06,2.84-4.32,5.51-.25,2.45.09,5.79,2.52,7.11a4.85,4.85,0,0,0,4.83-.29v.44c0,.87,1.2.73,1.74.5l2.13-.9c1.55-.66.17-1.74-1-1.24" transform="translate(-285.83 -330.99)"/><path class="cls-2" d="M687.46,416.15l-1.34.39q0-4.82-.15-9.63c0-1.72.33-3.75-1.47-4.69a4.55,4.55,0,0,0-4.51.48v-.32c0-.87-1.2-.73-1.74-.5l-1.64.7c-1.5.64-.24,1.68.92,1.28V413h0c0,.76,0,1.55-.83,1.65-.48.06-1.17.3-1.33.81s.3.78.75.78h4.4a2.17,2.17,0,0,0,1.2-.3,1,1,0,0,0,.4-.41.52.52,0,0,0,0-.58.83.83,0,0,0-.67-.3c-.37,0-.79,0-1.06-.27a2.53,2.53,0,0,1-.36-1.58V405c.68-.86,1.84-2.08,2.89-1.34.66.47.59,1.11.6,1.82,0,1.42.07,2.85.1,4.28,0,2.67.07,5.34.09,8,0,.71.9.76,1.43.61l2.75-.8c1.47-.42,1.09-1.89-.39-1.46" transform="translate(-285.83 -330.99)"/><path class="cls-2" d="M649.52,389.64c-.52,1.21-1.25,2.62-2.7,2.68a2.48,2.48,0,0,1-1.4-.21,1.74,1.74,0,0,1-.39-1.24V373.62c0-.92-1.27-.77-1.84-.53l-2.77,1.17c-.46.19-1,.68-.65,1.19s1.31.29,1.73.11l.94-.39V390c0,.46,0,1.37-.39,1.7s-1.24.3-1.63.42c-.88.25-1.7,1.52-.27,1.61l8.68.57c.52,0,1.47-.19,1.68-.75l1.44-3.72c.5-1.3-2-1.1-2.43-.19" transform="translate(-285.83 -330.99)"/><path class="cls-2" d="M725.42,379.68c1.76-.79,2.77,1.85,2.94,3.24l-4.09,2.41c0-.3,0-.58-.07-.85-.09-1.2-.24-4.15,1.22-4.8m6.1,6.4c-.11-1-2.55-.41-2.44.65.2,1.75-1,3.87-3,2.65a3.82,3.82,0,0,1-1.52-2.37l.08,0,5.75-3.39c.15-.09.44-.38.44-.59-.1-3.09-2.23-5.61-5.53-4.85-3.08.72-3.72,3.78-3.58,6.54.16,3.05,1.09,6.42,4.66,6.65a4.69,4.69,0,0,0,5.13-5.25" transform="translate(-285.83 -330.99)"/><path class="cls-2" d="M703.36,394.7c-2.93.12-4.53-2.95-4.75-5.48-.2-2.17,0-4.42,0-6.6,0-1.49.07-3-1.45-3.77a4.49,4.49,0,0,0-4.5.45V379c0-.87-1.2-.72-1.74-.49l-1.64.68c-1.51.63-.24,1.67.93,1.28v9.71c0,.52-.19,1-.81,1s-1.17.3-1.33.81.3.78.75.78h4.4a2.31,2.31,0,0,0,1.21-.3,1,1,0,0,0,.39-.41.52.52,0,0,0,0-.58.83.83,0,0,0-.67-.3c-.37,0-.79,0-1.06-.27a2.59,2.59,0,0,1-.36-1.62s0-.08,0-.12V381.6c.83-1,2.48-2.42,3.31-.77a3.49,3.49,0,0,1,.18,1.55c0,1.83,0,3.67,0,5.5,0,2.2.22,4.41,1.66,6.18a6.26,6.26,0,0,0,5.31,2.23c1.31-.05,1.94-1.65.27-1.59" transform="translate(-285.83 -330.99)"/><path class="cls-2" d="M678.62,390.69l-.89.37v-8.4c0-1.3.21-2.69-1-3.56-1.71-1.24-3.8-.63-5.42.55a2.44,2.44,0,0,0-.95-.82,4.51,4.51,0,0,0-4.51.48V379c0-.87-1.2-.74-1.74-.5l-1.92.85c-1.53.69-.15,1.77,1,1.24l.18-.08v10.67c0,.68-.16,1.22-.95,1.32-.47.05-1.18.29-1.33.8s.29.78.75.78h4.63a2.11,2.11,0,0,0,1.2-.29,1,1,0,0,0,.4-.42.51.51,0,0,0,0-.57.84.84,0,0,0-.67-.31,1.7,1.7,0,0,1-1.15-.3,2.45,2.45,0,0,1-.39-1.59.13.13,0,0,0,0-.06v-8.89c.69-.86,1.85-2.09,2.9-1.34.68.49.57,1.17.58,1.89s0,1.48,0,2.22c0,2.24.11,4.47.16,6.7,0,1,1.48.72,2,.35l1.52-1.06c1.15-.8-.16-1.36-1.12-1.13-.06-2.34-.12-4.69-.16-7,0-.2,0-.39,0-.58.73-.92,2-2.23,3.08-1.21.5.49.42,1.11.42,1.75v10.31c0,.88,1.2.72,1.73.5l2.63-1.08c1.56-.64.17-1.72-1-1.24" transform="translate(-285.83 -330.99)"/><path class="cls-2" d="M702.7,389.76a2.79,2.79,0,0,1-.49-2.59c.19-1,.73-1.34,1.58-1.75s2-.93,3-1.38v3.33c-.89,1.22-2.59,3.72-4.1,2.39m6.57-.51c0-2.58.07-5.17,0-7.74-.18-5.43-10.42-4-8.23,1.26.4,1,2.82.26,2.43-.65s-.59-2.06.58-2.42a2.34,2.34,0,0,1,2.69,1.61,3.61,3.61,0,0,1,.12,1c-2.53,1-6.45,2.23-7.06,4.94-.51,2.26.53,4.33,3,4.47a5.4,5.4,0,0,0,4-1.57V391c0,1,1.49.69,2,.34l1.52-1c1.15-.76-.11-1.32-1.07-1.13" transform="translate(-285.83 -330.99)"/><path class="cls-2" d="M717.85,388.62c-1,1.69-2.58,2.16-3.74.38a6.92,6.92,0,0,1-.84-4.33c.09-1.16.27-3.3,1.57-3.82,1.76-.7,2.81,1.37,3,2.73v5l0,0m2.48,1.07q0-7.44,0-14.87c0-.89-1.2-.69-1.74-.5l-2.26.82c-.44.16-.91.66-.61,1.12s1.22.26,1.63.11l.53-.18v3.37a4.81,4.81,0,0,0-2.82-.3c-2.91.51-4,2.95-4.24,5.66-.18,2.29.25,5.24,2.51,6.45a4.54,4.54,0,0,0,4.55-.25v.38c0,1,1.49.69,2,.35l1.61-1.06c1.2-.78-.19-1.35-1.16-1.1" transform="translate(-285.83 -330.99)"/><path class="cls-2" d="M684.31,389.32c-1.92-.25-2.58-2.89-2.6-4.51,0-1.2.38-4.49,2-4.52,3.2-.07,3.58,8.52.57,9m0-10.65c-6.26,0-7,11.85-.74,12.26h.31c6.2-.41,6.75-12.28.43-12.26" transform="translate(-285.83 -330.99)"/><path class="cls-2" d="M655.85,380.31c1.68-.75,2.67,1.61,2.91,3-.94.28-1.9.52-2.86.72-.32.07-.78.19-1.31.3-.05-1.39,0-3.52,1.26-4.06m6.1,6.4c-.1-1-2.55-.41-2.43.65.19,1.75-1,3.88-3,2.65-1.31-.81-1.68-2.64-1.83-4.17h.1a38.09,38.09,0,0,0,5.45-1.36c.31-.1,1-.4,1-.85-.09-3.09-2.23-5.61-5.53-4.84-2.8.64-3.58,3.23-3.59,5.77a1.49,1.49,0,0,1-1.16-.67c-.46-.82-2.81,0-2.24,1s2.06,1.3,3.48,1.24c.28,2.8,1.34,5.61,4.59,5.82a4.69,4.69,0,0,0,5.13-5.25" transform="translate(-285.83 -330.99)"/><path class="cls-3" d="M412,410.07v8.59a2.83,2.83,0,0,0,2.83,2.83H429V410.07Z" transform="translate(-285.83 -330.99)"/><path class="cls-4" d="M429,410.07v11.42h14.21a2.83,2.83,0,0,0,2.82-2.83v-8.59H429Z" transform="translate(-285.83 -330.99)"/><polygon class="cls-5" points="143.19 67.66 126.18 67.66 126.18 79.07 143.19 79.07 143.21 79.07 160.23 79.07 160.23 67.66 143.21 67.66 143.19 67.66"/><path class="cls-1" d="M414.84,387.23a2.82,2.82,0,0,0-2.83,2.83v8.58h17V387.23Z" transform="translate(-285.83 -330.99)"/><path class="cls-6" d="M443.23,387.23H429v11.41h17v-8.58A2.82,2.82,0,0,0,443.23,387.23Z" transform="translate(-285.83 -330.99)"/><path class="cls-7" d="M285.83,358.07c0-7.57,4.09-12.31,10.17-12.31a8.26,8.26,0,0,1,6.19,2.82l-.94,1.05a6.81,6.81,0,0,0-5.25-2.46c-5.28,0-8.54,4.2-8.54,10.86s3.22,11,8.4,11a7.71,7.71,0,0,0,6.08-3l.94,1a8.92,8.92,0,0,1-7.1,3.41C289.92,370.49,285.83,365.63,285.83,358.07Z" transform="translate(-285.83 -330.99)"/><path class="cls-7" d="M307.8,344h1.49v7.6l0,3.84c1.85-1.81,3.66-3.19,6.05-3.19,3.58,0,5.25,2.17,5.25,6.66v11.15h-1.49v-11c0-3.69-1.19-5.5-4-5.5-2.09,0-3.62,1.12-5.75,3.33v13.14H307.8Z" transform="translate(-285.83 -330.99)"/><path class="cls-7" d="M326.49,347a1.34,1.34,0,1,1,2.67,0,1.34,1.34,0,1,1-2.67,0Zm.57,5.68h1.49v17.38h-1.49Z" transform="translate(-285.83 -330.99)"/><path class="cls-7" d="M335.46,367.81V344H337v24c0,.84.32,1.13.83,1.13a1.88,1.88,0,0,0,.58-.08l.25,1.16a2.23,2.23,0,0,1-1.12.26C336.19,370.49,335.46,369.65,335.46,367.81Z" transform="translate(-285.83 -330.99)"/><path class="cls-7" d="M342.7,361.4c0-5.61,3.55-9.16,7.71-9.16a7.9,7.9,0,0,1,5.25,2.17l-.07-3.22V344h1.49v26.06h-1.27l-.15-2.28h-.11a8.09,8.09,0,0,1-5.68,2.72C345.53,370.49,342.7,367.26,342.7,361.4Zm12.89,4.85V355.86a7.36,7.36,0,0,0-5.14-2.28c-3.51,0-6.19,3.44-6.19,7.82,0,4.67,2.06,7.75,5.79,7.75C352,369.15,353.74,368.13,355.59,366.25Z" transform="translate(-285.83 -330.99)"/><path class="cls-7" d="M364,344h1.49v7.6l0,3.84c1.85-1.81,3.65-3.19,6-3.19,3.59,0,5.25,2.17,5.25,6.66v11.15h-1.48v-11c0-3.69-1.2-5.5-4-5.5-2.1,0-3.62,1.12-5.75,3.33v13.14H364Z" transform="translate(-285.83 -330.99)"/><path class="cls-7" d="M381.77,361.4c0-5.79,3.62-9.16,7.78-9.16s7.78,3.37,7.78,9.16-3.62,9.09-7.78,9.09S381.77,367.16,381.77,361.4Zm14,0c0-4.63-2.68-7.82-6.23-7.82s-6.23,3.19-6.23,7.82,2.68,7.75,6.23,7.75S395.78,366,395.78,361.4Z" transform="translate(-285.83 -330.99)"/><path class="cls-7" d="M401.28,361.4c0-5.79,3.62-9.16,7.78-9.16s7.79,3.37,7.79,9.16-3.62,9.09-7.79,9.09S401.28,367.16,401.28,361.4Zm14,0c0-4.63-2.68-7.82-6.23-7.82s-6.22,3.19-6.22,7.82,2.68,7.75,6.22,7.75S415.29,366,415.29,361.4Z" transform="translate(-285.83 -330.99)"/><path class="cls-7" d="M420.83,361.4c0-5.61,3.55-9.16,7.71-9.16,2.1,0,3.51.8,5.25,2.17l-.07-3.22V344h1.48v26.06h-1.26l-.15-2.28h-.11a8.09,8.09,0,0,1-5.68,2.72C423.65,370.49,420.83,367.26,420.83,361.4Zm12.89,4.85V355.86a7.36,7.36,0,0,0-5.14-2.28c-3.51,0-6.19,3.44-6.19,7.82,0,4.67,2.06,7.75,5.79,7.75C430.13,369.15,431.87,368.13,433.72,366.25Z" transform="translate(-285.83 -330.99)"/><path class="cls-7" d="M448.16,358.07c0-7.57,4.1-12.31,10.18-12.31a8.27,8.27,0,0,1,6.19,2.82l-.94,1.05a6.84,6.84,0,0,0-5.25-2.46c-5.29,0-8.55,4.2-8.55,10.86s3.23,11,8.4,11a7.68,7.68,0,0,0,6.08-3l1,1a8.93,8.93,0,0,1-7.1,3.41C452.26,370.49,448.16,365.63,448.16,358.07Z" transform="translate(-285.83 -330.99)"/><path class="cls-7" d="M468.87,365.74c0-3.87,3.51-5.68,11.26-6.55,0-2.71-.69-5.61-4.13-5.61a9.89,9.89,0,0,0-5.57,2l-.69-1.08a11.09,11.09,0,0,1,6.41-2.25c4.09,0,5.47,3,5.47,6.66v11.15h-1.27l-.18-2.28h-.07c-1.78,1.45-3.91,2.72-6.2,2.72C471.19,370.49,468.87,369,468.87,365.74Zm11.26.62v-6c-7.27.87-9.74,2.5-9.74,5.32,0,2.54,1.74,3.51,3.77,3.51S477.92,368.21,480.13,366.36Z" transform="translate(-285.83 -330.99)"/><path class="cls-7" d="M488.06,352.67h1.27l.18,2.72h.07c1.77-1.77,3.58-3.15,6-3.15,3.59,0,5.25,2.17,5.25,6.66v11.15h-1.48v-11c0-3.69-1.2-5.5-4-5.5-2.1,0-3.62,1.12-5.75,3.33v13.14h-1.49Z" transform="translate(-285.83 -330.99)"/><path class="cls-7" d="M506,361.4c0-5.79,3.69-9.16,7.89-9.16a6.9,6.9,0,0,1,5.1,2.17l-.83.94a5.8,5.8,0,0,0-4.24-1.77c-3.58,0-6.37,3.19-6.37,7.82s2.54,7.75,6.37,7.75a7,7,0,0,0,4.71-1.92l.76.94a7.84,7.84,0,0,1-5.54,2.32C509.35,370.49,506,367.16,506,361.4Z" transform="translate(-285.83 -330.99)"/><path class="cls-7" d="M521.73,361.4c0-5.68,3.69-9.16,7.57-9.16,4.09,0,6.62,2.9,6.62,8a8.35,8.35,0,0,1-.07,1.3H523.29c0,4.42,2.64,7.6,6.59,7.6a8.26,8.26,0,0,0,4.7-1.41l.62,1a9,9,0,0,1-5.47,1.71C525.31,370.49,521.73,367.08,521.73,361.4Zm12.78-1.12c0-4.49-2.06-6.74-5.21-6.74-3,0-5.65,2.54-6,6.74Z" transform="translate(-285.83 -330.99)"/><path class="cls-7" d="M540.85,352.67h1.26l.18,3.26h.08c1.16-2.13,2.86-3.69,4.92-3.69a3.41,3.41,0,0,1,1.7.36l-.4,1.31a4.28,4.28,0,0,0-1.48-.22c-1.59,0-3.44,1.19-4.78,4.49v11.87h-1.48Z" transform="translate(-285.83 -330.99)"/><path class="cls-7" d="M285.84,385.07h11.29c11.65,0,19.65,5.41,19.65,18.94s-8,19.3-19.06,19.3H285.84Zm10.7,30.12c5.53,0,9.89-2.24,9.89-11.18s-4.36-10.83-9.89-10.83H296v22Z" transform="translate(-285.83 -330.99)"/><path class="cls-7" d="M321.6,415c0-6.12,4.71-9.53,16-10.7-.24-2.12-1.53-3.06-4.12-3.06-2.12,0-4.36.7-7.41,2.35l-3.53-6.47a24.77,24.77,0,0,1,12.94-3.89c7.65,0,12.24,4.12,12.24,13.77v16.36h-8.24l-.71-2.83h-.23a11.93,11.93,0,0,1-8.12,3.53C324.9,424,321.6,419.78,321.6,415Zm16-.7v-4c-4.83.7-6.36,2.23-6.36,3.88,0,1.35.95,2.12,2.71,2.12S336.55,415.42,337.61,414.25Z" transform="translate(-285.83 -330.99)"/><path class="cls-7" d="M354.43,412V401.77h-3.88v-7.53l4.47-.35,1.18-8.82h8.35v8.82h6.71v7.88h-6.71v10.06c0,3.24,1.65,4.3,3.53,4.3a8.77,8.77,0,0,0,2.59-.35l1.53,7.06a19.69,19.69,0,0,1-6.94,1.17C357.61,424,354.43,419.19,354.43,412Z" transform="translate(-285.83 -330.99)"/><path class="cls-7" d="M374.32,415c0-6.12,4.71-9.53,16-10.7-.23-2.12-1.53-3.06-4.12-3.06-2.12,0-4.35.7-7.41,2.35l-3.53-6.47a24.8,24.8,0,0,1,12.94-3.89c7.65,0,12.24,4.12,12.24,13.77v16.36H392.2l-.7-2.83h-.24a11.91,11.91,0,0,1-8.12,3.53C377.61,424,374.32,419.78,374.32,415Zm16-.7v-4c-4.82.7-6.35,2.23-6.35,3.88,0,1.35.94,2.12,2.7,2.12S389.26,415.42,390.32,414.25Z" transform="translate(-285.83 -330.99)"/><path class="cls-7" d="M457.62,385.07h10.12v29.77h14.47v8.47H457.62Z" transform="translate(-285.83 -330.99)"/><path class="cls-7" d="M486.8,415c0-6.12,4.71-9.53,16-10.7-.23-2.12-1.53-3.06-4.11-3.06-2.12,0-4.36.7-7.42,2.35l-3.53-6.47a24.83,24.83,0,0,1,12.95-3.89c7.64,0,12.23,4.12,12.23,13.77v16.36h-8.23l-.71-2.83h-.23a12,12,0,0,1-8.12,3.53C490.1,424,486.8,419.78,486.8,415Zm16-.7v-4c-4.82.7-6.35,2.23-6.35,3.88,0,1.35.94,2.12,2.71,2.12S501.75,415.42,502.8,414.25Z" transform="translate(-285.83 -330.99)"/><path class="cls-7" d="M528.45,420.13h-.23l-.82,3.18h-7.89V382.36h10.12v9.53l-.23,4.24a10.78,10.78,0,0,1,7.23-2.95c7,0,11.48,5.89,11.48,14.89,0,10.18-6,15.94-12.24,15.94C533.28,424,530.69,422.72,528.45,420.13Zm9.3-11.88c0-4.83-1.41-6.83-4.12-6.83a4.92,4.92,0,0,0-4,2.12v10.82a5.41,5.41,0,0,0,3.77,1.42C535.75,415.78,537.75,413.89,537.75,408.25Z" transform="translate(-285.83 -330.99)"/><path class="cls-7" d="M588.33,383.59l-6-9.77h5.25l2.24,3.81c.58,1.16,1.24,2.31,1.82,3.43h.16c.54-1.12,1.08-2.27,1.62-3.43l1.86-3.81h5.09l-6,10.3,6.41,10.06h-5.25l-2.44-4c-.66-1.2-1.37-2.44-2-3.6h-.17c-.62,1.16-1.2,2.4-1.82,3.6l-2.07,4h-5.08Z" transform="translate(-285.83 -330.99)"/></g></svg>