<svg xmlns="http://www.w3.org/2000/svg" viewBox="0 0 385.74 165.1"><defs><style>.cls-1{fill:#737ebf;}.cls-2{fill:#ffe964;}.cls-3{fill:#b9bcdf;}.cls-4{fill:#fd0;}.cls-5{fill:#fff09a;}.cls-6{fill:#fff;}</style></defs><g id="Layer_6" data-name="Layer 6"><path class="cls-1" d="M504.08,398.31V410.9a4.15,4.15,0,0,0,4.15,4.15H529V398.31Z" transform="translate(-319.13 -301.45)"/><path class="cls-2" d="M529,398.31v16.74h20.82A4.15,4.15,0,0,0,554,410.9V398.31H529Z" transform="translate(-319.13 -301.45)"/><polygon class="cls-3" points="209.89 80.12 184.95 80.12 184.95 96.86 209.89 96.86 209.91 96.86 234.86 96.86 234.86 80.12 209.91 80.12 209.89 80.12"/><path class="cls-4" d="M508.23,364.83a4.15,4.15,0,0,0-4.15,4.15v12.58H529V364.83Z" transform="translate(-319.13 -301.45)"/><path class="cls-5" d="M549.84,364.83H529v16.73h25V369A4.15,4.15,0,0,0,549.84,364.83Z" transform="translate(-319.13 -301.45)"/><path class="cls-6" d="M319.13,322.09c0-11.09,6-18,14.91-18a12.09,12.09,0,0,1,9.08,4.14l-1.38,1.54a10,10,0,0,0-7.7-3.61c-7.75,0-12.52,6.15-12.52,15.92s4.72,16.18,12.31,16.18c3.66,0,6.37-1.48,8.91-4.35l1.38,1.43c-2.7,3.08-5.83,5-10.4,5C325.13,340.29,319.13,333.18,319.13,322.09Z" transform="translate(-319.13 -301.45)"/><path class="cls-6" d="M351.34,301.45h2.18v11.14l0,5.63c2.7-2.66,5.35-4.67,8.86-4.67,5.25,0,7.69,3.18,7.69,9.76v16.34h-2.18V323.58c0-5.42-1.75-8.07-5.89-8.07-3.07,0-5.3,1.65-8.43,4.88v19.26h-2.18Z" transform="translate(-319.13 -301.45)"/><path class="cls-6" d="M378.72,305.85a2,2,0,1,1,3.93,0,2,2,0,1,1-3.93,0Zm.85,8.33h2.18v25.47h-2.18Z" transform="translate(-319.13 -301.45)"/><path class="cls-6" d="M391.88,336.36V301.45h2.18v35.23c0,1.22.48,1.65,1.22,1.65a2.92,2.92,0,0,0,.85-.11l.37,1.7a3.34,3.34,0,0,1-1.64.37C393,340.29,391.88,339.07,391.88,336.36Z" transform="translate(-319.13 -301.45)"/><path class="cls-6" d="M402.5,327c0-8.22,5.2-13.42,11.3-13.42,3.08,0,5.15,1.16,7.69,3.18l-.1-4.72V301.45h2.17v38.2h-1.85l-.22-3.34h-.16a11.89,11.89,0,0,1-8.33,4C406.63,340.29,402.5,335.57,402.5,327Zm18.89,7.11V318.85c-2.71-2.44-5-3.34-7.54-3.34-5.15,0-9.07,5-9.07,11.46,0,6.85,3,11.36,8.49,11.36C416.13,338.33,418.68,336.84,421.39,334.08Z" transform="translate(-319.13 -301.45)"/><path class="cls-6" d="M433.7,301.45h2.18v11.14l-.06,5.63c2.71-2.66,5.36-4.67,8.86-4.67,5.26,0,7.7,3.18,7.7,9.76v16.34H450.2V323.58c0-5.42-1.75-8.07-5.89-8.07-3.08,0-5.3,1.65-8.43,4.88v19.26H433.7Z" transform="translate(-319.13 -301.45)"/><path class="cls-6" d="M459.76,327c0-8.49,5.3-13.42,11.4-13.42s11.41,4.93,11.41,13.42-5.3,13.32-11.41,13.32S459.76,335.41,459.76,327Zm20.53,0c0-6.79-3.93-11.46-9.13-11.46S462,320.18,462,327s3.92,11.36,9.12,11.36S480.29,333.76,480.29,327Z" transform="translate(-319.13 -301.45)"/><path class="cls-6" d="M488.36,327c0-8.49,5.31-13.42,11.41-13.42s11.41,4.93,11.41,13.42-5.31,13.32-11.41,13.32S488.36,335.41,488.36,327Zm20.53,0c0-6.79-3.92-11.46-9.12-11.46s-9.13,4.67-9.13,11.46,3.93,11.36,9.13,11.36S508.89,333.76,508.89,327Z" transform="translate(-319.13 -301.45)"/><path class="cls-6" d="M517,327c0-8.22,5.2-13.42,11.3-13.42,3.08,0,5.15,1.16,7.69,3.18l-.1-4.72V301.45h2.17v38.2h-1.86l-.21-3.34h-.16a11.89,11.89,0,0,1-8.33,4C521.15,340.29,517,335.57,517,327Zm18.89,7.11V318.85c-2.71-2.44-5-3.34-7.54-3.34-5.15,0-9.07,5-9.07,11.46,0,6.85,3,11.36,8.49,11.36C530.65,338.33,533.2,336.84,535.91,334.08Z" transform="translate(-319.13 -301.45)"/><path class="cls-6" d="M557.08,322.09c0-11.09,6-18,14.91-18a12,12,0,0,1,9.07,4.14l-1.38,1.54a10,10,0,0,0-7.69-3.61c-7.75,0-12.52,6.15-12.52,15.92s4.72,16.18,12.31,16.18c3.66,0,6.37-1.48,8.91-4.35l1.38,1.43c-2.7,3.08-5.84,5-10.4,5C563.08,340.29,557.08,333.18,557.08,322.09Z" transform="translate(-319.13 -301.45)"/><path class="cls-6" d="M587.43,333.34c0-5.68,5.15-8.33,16.51-9.6,0-4-1-8.23-6.05-8.23a14.5,14.5,0,0,0-8.18,2.92l-1-1.59a16.23,16.23,0,0,1,9.39-3.29c6,0,8,4.4,8,9.76v16.34h-1.86l-.26-3.34h-.11c-2.6,2.12-5.73,4-9.07,4C590.83,340.29,587.43,338.17,587.43,333.34Zm16.51.9v-8.81c-10.67,1.28-14.28,3.66-14.28,7.8,0,3.72,2.55,5.15,5.52,5.15S600.7,337,603.94,334.24Z" transform="translate(-319.13 -301.45)"/><path class="cls-6" d="M615.56,314.18h1.86l.26,4h.11c2.6-2.6,5.25-4.61,8.75-4.61,5.26,0,7.7,3.18,7.7,9.76v16.34h-2.18V323.58c0-5.42-1.75-8.07-5.89-8.07-3.08,0-5.3,1.65-8.44,4.88v19.26h-2.17Z" transform="translate(-319.13 -301.45)"/><path class="cls-6" d="M641.77,327c0-8.49,5.42-13.42,11.57-13.42a10.14,10.14,0,0,1,7.48,3.18l-1.22,1.38a8.48,8.48,0,0,0-6.21-2.6c-5.25,0-9.33,4.67-9.33,11.46s3.71,11.36,9.33,11.36a10.32,10.32,0,0,0,6.9-2.81l1.12,1.37a11.48,11.48,0,0,1-8.12,3.4C646.76,340.29,641.77,335.41,641.77,327Z" transform="translate(-319.13 -301.45)"/><path class="cls-6" d="M664.91,327c0-8.33,5.41-13.42,11.09-13.42,6,0,9.71,4.24,9.71,11.78a12.62,12.62,0,0,1-.1,1.91H667.19c.06,6.47,3.88,11.14,9.66,11.14a12.08,12.08,0,0,0,6.9-2.07l.9,1.49a13.21,13.21,0,0,1-8,2.49C670.17,340.29,664.91,335.3,664.91,327Zm18.73-1.64c0-6.58-3-9.87-7.64-9.87-4.35,0-8.28,3.71-8.81,9.87Z" transform="translate(-319.13 -301.45)"/><path class="cls-6" d="M692.93,314.18h1.86l.26,4.78h.11c1.7-3.13,4.19-5.41,7.22-5.41a5,5,0,0,1,2.49.53l-.58,1.91a6.6,6.6,0,0,0-2.18-.32c-2.33,0-5,1.75-7,6.58v17.4h-2.18Z" transform="translate(-319.13 -301.45)"/><path class="cls-4" d="M670.94,453.87a3.69,3.69,0,0,0-3.88,5.6c1.61,2.88,5.35,3.4,8.22,2.26a5.39,5.39,0,0,0,2.85-7.34c-.84-1.77-2.74-2.79-4.41-3.63s-3.06-1.35-3.49-3.21.23-3.92,2.22-4.17a3.48,3.48,0,0,1,2.79.85c.57.61.89,1.87-.08,2.27-1.49.63-.16,1.67,1,1.2,2.86-1.2,2.34-4.5-.37-5.49-2.53-.91-5.81-.24-7.34,2.11a5.07,5.07,0,0,0-.41,4.38,5.26,5.26,0,0,0,3,2.88c1.71.85,3.91,1.72,4.81,3.53.65,1.31.66,3.58-.37,4.71-1.22,1.32-3.55,1.15-4.9.18a4,4,0,0,1-1.64-2.5c-.17-.94,0-2.27,1.18-2.1,1,.16,2.44-1.3.86-1.53Z" transform="translate(-319.13 -301.45)"/><path class="cls-4" d="M662,457.06c-.47,1.1-1.14,2.38-2.47,2.44a2.24,2.24,0,0,1-1.27-.19,1.68,1.68,0,0,1-.36-1.13v-.9a.56.56,0,0,0,0-.13v-14.7c0-.84-1.15-.7-1.67-.48L653.74,443c-.41.17-.88.62-.59,1.08s1.19.27,1.58.11l.85-.36v13.52c0,.42,0,1.25-.35,1.55s-1.13.28-1.49.38c-.8.24-1.55,1.39-.24,1.47l7.91.52c.48,0,1.34-.17,1.54-.68l1.31-3.39C664.71,456.05,662.4,456.23,662,457.06Z" transform="translate(-319.13 -301.45)"/><path class="cls-4" d="M649.18,460.25l-.82.63q-1.22-9.42-2.42-18.83c-.14-1.07-2.14-.2-2.36.43q-2.12,6-4.22,12c-2.3-.62-4.1-1.44-3.61-2.43s-1.81-1-2.22-.16c-1.07,2.17,1.87,3.51,5.22,4.34q-1.07,3-2.14,6.08c-.09.28-.19.55-.29.83a3.12,3.12,0,0,1-1.92,2.05c-1,.45-.77,1.52.36,1.35l4.62-.66.12,0a1.88,1.88,0,0,0,.77-.28l0,0,0,0a.74.74,0,0,0,.34-.52.53.53,0,0,0-.36-.56.9.9,0,0,0-.33-.09h-.39a2,2,0,0,1-1.05-.13c-.3-.25,0-.89.08-1.2.75-2.11,1.49-4.23,2.24-6.35,1.81.33,3.53.53,4.59.64l.73,5.66c.1.78,1.58.41,1.93.14l2.56-2C652,460.19,650,459.61,649.18,460.25ZM641.47,455c.91-2.57,1.81-5.13,2.71-7.7l1.08,8.35C644.2,455.47,642.84,455.25,641.47,455Z" transform="translate(-319.13 -301.45)"/><path class="cls-4" d="M693.31,440.63l-10,1.86c-1.15.22-1.32,1.71.06,1.47l.32-.06h0l.53-.1c.28,0,.4.14.4.72,0,2.31,0,4.61-.07,6.92-.32.16-.64.33-1,.52a5.24,5.24,0,0,0-2.36,2.1c-.46,1.17,1.88,1,2.22.17a3,3,0,0,1,1.09-1.06l-.09,8.55c-.17.92-.59,1.1-1.7,1s-2.32,1.3-.82,1.45l6.12.58.43,0c.68.07,1.52-.58,1.49-1,0-.22-.19-.39-.68-.42l-.28,0a2.51,2.51,0,0,1-1.91-1,1.79,1.79,0,0,1-.28-1l.09-9.39c2.2-.93,4.65-1.44,4.87-.3.18,1,2.54.37,2.35-.63-.49-2.53-4.8-1.36-6.34-.87-.29.09-.58.19-.86.3l.07-7.12,3.36-.64.2,0c1.27-.09,1.56,1.66,1.74,2.59s2.36.39,2.36-.43v-3.58C694.68,440.49,693.81,440.53,693.31,440.63Z" transform="translate(-319.13 -301.45)"/><path class="cls-4" d="M627.49,447.71c-.61-.26-1.66-.48-1.91-.83v0a11,11,0,0,0-6-3.86,15.06,15.06,0,0,0-14.1,4,11.53,11.53,0,0,0-3.41,7.91c-.07.71-1.54,1.84-1.54,2.84a2.37,2.37,0,0,0,.92,2.11c.4.31,1.15.26,1.72.38a2.64,2.64,0,0,1,1.13.73l0,0c3.36,4,9.44,4.58,14.19,2.93l.12-.05.15,0c4.49-1.74,8.52-5.71,8.79-10.75a9.37,9.37,0,0,0,0-1.3,2.87,2.87,0,0,0,1.13-1.71A2.63,2.63,0,0,0,627.49,447.71Zm-22.31,4c-.13-.62,1-.9,1.16-.27S605.32,452.3,605.18,451.66Zm.48-2.17c-.19-.93,1.38-1.3,1.64-.37S605.85,450.44,605.66,449.49Zm2.22,1.47c-.23-1.13,1.65-1.56,2-.43S608.12,452.11,607.88,451Zm.62-3.16c-.26-1.24,1.77-1.7,2.1-.47S608.76,449.05,608.5,447.8Zm2.5.79c-.17-.83,1.25-1.16,1.47-.34S611.17,449.44,611,448.59Zm.79-2.73a1.25,1.25,0,0,1,2.42-.54C614.43,446.76,612.09,447.32,611.79,445.86Zm3.89-.08c-.23-1.14,1.65-1.57,2-.44S615.92,446.92,615.68,445.78Zm4.31,14c-.79.32-1.72-.4-.68-.82a6.84,6.84,0,0,0,4.22-5.93c0-.64,1.69-.92,1.63-.16A8.15,8.15,0,0,1,620,459.79Z" transform="translate(-319.13 -301.45)"/><path class="cls-6" d="M319.14,361.66H335.7c17.07,0,28.8,7.94,28.8,27.77s-11.73,28.29-27.94,28.29H319.14Zm15.7,44.15c8.1,0,14.48-3.27,14.48-16.38s-6.38-15.87-14.48-15.87H334v32.25Z" transform="translate(-319.13 -301.45)"/><path class="cls-6" d="M371.57,405.47c0-9,6.9-14,23.46-15.7-.35-3.1-2.25-4.48-6-4.48-3.1,0-6.38,1-10.86,3.45L373,379.25c6-3.62,12.25-5.69,19-5.69,11.21,0,17.94,6,17.94,20.18v24H397.79l-1-4.14h-.34c-3.45,3.1-7.25,5.17-11.9,5.17C376.4,418.75,371.57,412.54,371.57,405.47Zm23.46-1v-5.86c-7.07,1-9.32,3.28-9.32,5.69,0,2,1.38,3.11,4,3.11C392.09,407.37,393.47,406.16,395,404.43Z" transform="translate(-319.13 -301.45)"/><path class="cls-6" d="M419.69,401.16v-15H414v-11l6.55-.51,1.73-12.94h12.24V374.6h9.84v11.55h-9.84V400.9c0,4.74,2.42,6.29,5.18,6.29a12.73,12.73,0,0,0,3.79-.51L445.74,417a28.72,28.72,0,0,1-10.18,1.72C424.35,418.75,419.69,411.68,419.69,401.16Z" transform="translate(-319.13 -301.45)"/><path class="cls-6" d="M448.84,405.47c0-9,6.9-14,23.45-15.7-.34-3.1-2.24-4.48-6-4.48-3.11,0-6.38,1-10.87,3.45l-5.17-9.49c6-3.62,12.24-5.69,19-5.69,11.21,0,17.94,6,17.94,20.18v24H475.05l-1-4.14h-.35c-3.45,3.1-7.24,5.17-11.9,5.17C453.67,418.75,448.84,412.54,448.84,405.47Zm23.45-1v-5.86c-7.07,1-9.31,3.28-9.31,5.69,0,2,1.38,3.11,4,3.11C469.36,407.37,470.74,406.16,472.29,404.43Z" transform="translate(-319.13 -301.45)"/><path class="cls-6" d="M570.94,361.66h14.84V405.3H607v12.42h-36Z" transform="translate(-319.13 -301.45)"/><path class="cls-6" d="M613.71,405.47c0-9,6.9-14,23.46-15.7-.34-3.1-2.24-4.48-6-4.48-3.1,0-6.38,1-10.86,3.45l-5.18-9.49c6-3.62,12.25-5.69,19-5.69,11.21,0,17.93,6,17.93,20.18v24H639.93l-1-4.14h-.35c-3.45,3.1-7.24,5.17-11.9,5.17C618.54,418.75,613.71,412.54,613.71,405.47Zm23.46-1v-5.86c-7.07,1-9.31,3.28-9.31,5.69,0,2,1.38,3.11,4,3.11C634.24,407.37,635.62,406.16,637.17,404.43Z" transform="translate(-319.13 -301.45)"/><path class="cls-6" d="M674.77,413.06h-.35l-1.2,4.66H661.66v-60h14.83v14l-.34,6.21a15.86,15.86,0,0,1,10.6-4.31c10.18,0,16.82,8.63,16.82,21.82,0,14.92-8.8,23.37-17.94,23.37C681.84,418.75,678,416.85,674.77,413.06Zm13.62-17.42c0-7.07-2.07-10-6-10-2.25,0-4,.86-5.87,3.1v15.87a7.93,7.93,0,0,0,5.52,2.07C685.46,406.68,688.39,403.92,688.39,395.64Z" transform="translate(-319.13 -301.45)"/></g></svg>