<svg id="svg" xmlns="http://www.w3.org/2000/svg" xmlns:xlink="http://www.w3.org/1999/xlink" width="400" height="400" viewBox="0, 0, 400,400">
	<style>
        path {
            fill: #003595;
        }
	</style>
	<g id="svgg"><path id="path0" d="M198.828 52.814 C 107.225 64.995,41.016 127.600,33.286 209.346 C 32.137 221.502,32.672 220.234,23.312 232.982 C 13.797 245.943,12.500 248.877,12.500 257.439 C 12.500 261.340,12.808 264.865,13.185 265.273 C 13.562 265.682,14.449 267.800,15.156 269.981 C 18.415 280.034,26.311 285.501,40.122 287.266 C 52.680 288.872,57.084 291.163,65.664 300.558 C 118.592 358.514,223.066 364.143,297.867 313.069 C 345.987 280.213,373.410 233.472,373.433 184.269 L 373.438 174.397 378.017 169.643 C 380.536 167.029,383.612 162.858,384.853 160.374 C 386.094 157.891,387.373 155.742,387.695 155.599 C 388.498 155.242,388.441 142.378,387.635 141.880 C 387.280 141.661,386.366 139.424,385.605 136.911 C 382.507 126.679,376.039 120.306,365.274 116.877 C 352.131 112.690,349.454 111.101,342.646 103.440 C 308.102 64.575,253.892 45.492,198.828 52.814 M185.231 78.542 C 199.850 83.700,196.678 102.368,180.592 105.842 C 171.639 107.775,163.352 101.123,163.298 91.961 C 163.241 82.087,174.959 74.918,185.231 78.542 M235.494 81.989 C 242.975 86.921,240.828 97.766,231.669 101.308 C 218.977 106.216,209.199 92.867,218.871 83.836 C 222.791 80.176,231.309 79.230,235.494 81.989 M140.143 107.333 C 150.388 111.614,147.863 125.977,136.273 129.346 C 126.995 132.044,119.531 127.139,119.531 118.346 C 119.531 109.324,130.668 103.374,140.143 107.333 M169.727 124.267 C 175.206 131.030,165.270 140.508,156.764 136.633 C 150.858 133.942,152.531 123.687,159.113 122.229 C 160.331 121.959,161.680 121.651,162.109 121.544 C 163.937 121.090,168.464 122.709,169.727 124.267 M100.195 135.162 C 106.045 141.596,99.427 150.744,89.606 149.801 C 83.802 149.243,80.681 144.897,82.142 139.410 C 84.016 132.377,95.258 129.732,100.195 135.162 M132.031 151.422 C 142.461 158.968,133.477 172.751,119.362 170.858 C 111.061 169.744,108.657 157.388,115.721 152.145 C 119.947 149.009,128.191 148.643,132.031 151.422 M88.840 166.894 C 91.787 170.925,88.415 175.773,82.251 176.365 C 77.464 176.825,75.555 175.081,75.925 170.584 C 76.347 165.446,85.805 162.743,88.840 166.894 M339.063 185.156 C 340.842 186.936,340.880 187.426,339.822 194.922 C 334.654 231.543,309.903 263.704,275.260 278.808 C 266.062 282.819,258.203 281.424,258.203 275.781 C 258.203 273.066,258.268 273.015,267.646 268.359 C 297.248 253.665,315.335 228.022,319.551 194.769 C 319.964 191.511,320.744 188.311,321.284 187.658 C 324.506 183.763,336.046 182.139,339.063 185.156 " stroke="none" fill="#003595" fill-rule="evenodd"/></g></svg>